<svg width="2022.26" height="2658.21" viewBox="0 0 2022.26 2658.21" xmlns="http://www.w3.org/2000/svg" xmlns:xlink="http://www.w3.org/1999/xlink" overflow="hidden"><defs></defs><path d="M648.41 1654.34C622 1698.16 381.35 1644.96 346.88 1639.62 312.44 1634.51 125.96 1648.78 64.08 1632.7 10.4 1618.63 22.56 1545.66 57.58 1516.56 104.07 1477.65 282.46 1511.52 353.87 1521.8 425.38 1532.1 692.89 1580.55 648.41 1654.34Z" fill="#A31F11"/><g><path d="M1175.08 2203.56C1137.61 2163.93 1000.36 2314.12 977.18 2355.06 960.79 2383.98 909.35 2503.85 962.13 2550.21 1014.93 2596.39 1091.67 2551.46 1084.39 2517.16 1076.99 2482.84 1055.81 2406.91 1068.62 2383.36 1081.37 2360.02 1201.56 2231.74 1175.08 2203.56Z" fill="#A31F11"/><path d="M655.88 1991.11C622 1937.25 424.53 2083.96 402.72 2116.67 380.81 2149.53 405.5 2325.9 477.86 2360.12 550.22 2394.3 580.43 2358.44 561.77 2321.75 542.97 2285.11 499.96 2195.51 505.39 2164.28 510.51 2134.94 680 2029.37 655.88 1991.11Z" fill="#A31F11"/><path d="M971.25 1882.77C1304.26 1585.88 1637.79 1561 1937.67 1832.59 2043.57 1908.86 2048.45 1946.07 1961.24 2086.75 1873.95 2227.53 1604.25 2463.79 1244.32 2382.95 884.45 2302.07 820.86 2071.84 971.25 1882.77Z" fill="#D83116"/><path d="M1014.65 1921.4C1022.95 2139.66 1627.41 2439.23 1950.78 1884.66 1667.55 1514.02 1144.73 1649.92 1014.65 1921.4Z" fill="#F74D3C"/><path d="M1363.67 1743.86C1232.35 2025.44 1747.1 1976.78 1747.12 1786.82 1747.13 1667.36 1418.18 1626.98 1363.67 1743.86Z" fill="#FF715A"/><path d="M577.67 1502.47C861.56 1438.65 1193.33 1837.15 897.44 2066.8 686.27 2230.79 259.42 1732.23 577.67 1502.47Z" fill="#D83116"/><path d="M672.08 1565.19C531.31 1655.06 773.36 2049.06 959.86 1937.93 1102.32 1818.25 822.27 1469.31 672.08 1565.19Z" fill="#F74D3C"/><path d="M758.92 1587.98C695.05 1640.99 834.88 1842.87 904.71 1753.12 974.6 1663.3 806.21 1548.73 758.92 1587.98Z" fill="#FF715A"/><path d="M598.93 1670.41C547.78 1668.36 376.52 1757.91 345.69 1773.87 314.54 1789.73 140 1770.62 86.62 1805.58 40.21 1835.92 82.79 1935.45 125.25 1951.93 181.78 1973.87 336.76 1932.61 401.19 1900.02 465.55 1867.41 679.95 1673.82 598.93 1670.41Z" fill="#D83116"/><path d="M776.77 2049.89C738.64 1999.08 530.85 2219.02 526.65 2258.39 521.9 2302.38 556.54 2447.46 631.39 2475.29 706.34 2503.16 743.93 2423.43 722.54 2388.47 700.99 2353.62 637.11 2302.18 639.45 2271.31 641.84 2239.6 803.86 2085.91 776.77 2049.89Z" fill="#D83116"/><path d="M1197.2 1726.34C1385.69 1829.35 1381.83 2286.93 1258.55 2384.78 1355.96 2410.87 1488.83 2390.04 1488.83 2390.04 1630.5 2138.4 1584.89 1726.09 1436.79 1647.04 1303.14 1659.23 1197.2 1726.34 1197.2 1726.34Z" fill="#5B0E06"/><g><g><g><path d="M1937.67 1832.59C1876.47 1777.16 1813.79 1734.85 1750.09 1703.78 1857.31 1814.12 1866.89 2080.14 1801.85 2255.2 1875.29 2199.4 1930.09 2136.94 1961.24 2086.76 2048.45 1946.07 2043.57 1908.86 1937.67 1832.59Z" fill="#5B0E06"/></g></g></g><g><path d="M533.58 589.85C473.49 405.26 318.13 200.78 86.35 251.36-40.89 279.09-27 95.66 124.65 121 369.65 162.12 480 349.24 569.41 576.25 582.54 628.32 553 637.59 533.58 589.85Z" fill="#5B0E06"/><path d="M288.73 629.07C581.39 409.34 1256.32 651.75 1160.74 1186 1078.51 1645.14 389.7 1583.3 125.11 1295.49-31.17 1125.54-5.11 849.54 288.73 629.07Z" fill="#D83116"/><path d="M267.74 664.35C586.62 371.29 1173.44 735.42 980.98 1113.05 729.29 1606.93-358.27 1239.65 267.74 664.35Z" fill="#F74D3C"/><path d="M680.16 585.3C324.38 438.43-71.46 1011.17 286.53 1111.94 756.82 1244.33 1064.08 743.76 680.16 585.3Z" fill="#FF715A"/><path d="M825.25 652.33C870.05 431.15 867.32 217.75 653.52 135.9 530.85 89.04 628.84-61.25 750.34 27.53 964.55 184.16 927.06 524.01 861.32 653.94 846.62 694.43 817.13 689.72 825.25 652.33Z" fill="#5B0E06"/><path d="M51.55 136.4C-8.88 164.75 55.19 226.03 113.14 203.18 171.13 180.26 146.48 91.91 51.55 136.4Z" fill="#B25742"/><path d="M745.79 35.04C822.26 85.56 732.44 145.61 676.67 96.32 620.96 47.11 679.47-8.68 745.79 35.04Z" fill="#B25742"/></g><path d="M586.55 1670.38C600.24 1615.65 323.48 1778.41 341.72 1814.23 375.24 1880.06 576.1 1712.15 586.55 1670.38Z" fill="#F74D3C"/><path d="M758.09 2032.27C756.94 1975.87 532.54 2205.49 559.53 2235.27 609.13 2290.01 758.96 2075.32 758.09 2032.27Z" fill="#F74D3C"/><g><path d="M740.7 781.17C876.7 765.51 965.94 942.67 876.64 1091.33 799.66 1219.45 649.77 1315.54 528.73 1235.93 407.68 1156.32 537.35 804.58 740.7 781.17Z" fill="#FFBBBB"/><path d="M722.51 810.86C833.97 798.02 908.46 952.37 837.64 1090.53 776.17 1210.46 640.53 1292.7 531.38 1220.91 422.24 1149.12 539.17 831.99 722.51 810.86Z" fill="#FFE3E3"/><path d="M565.16 910.39C629.28 847.19 754.88 906.11 714.56 1063.89 679.96 1199.27 563.33 1257.01 513.79 1224.59 447.96 1181.5 493.49 977.31 565.16 910.39Z" fill="#8084CE"/><path d="M311.64 663.38C378.27 690.96 237.95 1016.84 160.48 1065.24 100.69 1102.59 49.32 1065.65 49.87 992.33 50.84 864.03 193.5 614.47 311.64 663.38Z" fill="#FFBBBB"/><path d="M294.69 702.22C358.15 725.32 250.58 993.57 176.5 1055.12 121.16 1101.1 79.95 1055.22 69.72 1016.72 38.85 900.59 173.73 685.09 294.69 702.22Z" fill="#FFE3E3"/><path d="M290.04 846.63C304.37 741.76 188.67 723.07 131.73 830.84 63.53 959.94 87.88 1096.33 151.7 1071.09 215.5 1045.86 288.62 884.94 290.04 846.63Z" fill="#8084CE"/><path d="M220.34 822.07C128.16 823.1 73.1 1044.59 147.33 1060.25 196.23 1070.58 353.77 820.58 220.34 822.07Z" fill="#1C0C18"/><path d="M605.32 944.1C729.45 1005.56 606.23 1270.17 505.87 1205.67 449.85 1169.66 504.52 894.17 605.32 944.1Z" fill="#1C0C18"/><path d="M631.41 1044.11C638.9 1018.2 776.91 955.55 769.39 1008.89 761.88 1062.22 618.34 1089.3 631.41 1044.11Z" fill="#FFE3E3"/><path d="M167.42 889.16C186.11 874.42 190.3 765.28 149.21 789.17 108.1 813.06 134.83 914.87 167.42 889.16Z" fill="#FFE3E3"/><path d="M663.06 805.79C855.14 680.76 1049.65 938.45 827.62 1157.63 975.32 967.25 848.27 718.47 663.06 805.79Z" fill="#D83116"/><path d="M328.69 728.5C349.15 582.18 196.68 634.91 105.28 812.38 211.72 659.03 319.02 647.83 328.69 728.5Z" fill="#D83116"/></g><path d="M146.46 981.98C150.57 975.16 187.42 971.85 195.5 979.59 203.58 987.33 200.52 1015.29 194.73 1021.61 188.94 1027.94 156.08 1029.32 148.95 1024.67 141.83 1020.04 142.35 988.8 146.46 981.98Z" fill="#CAD8D8"/><path d="M552.47 1139.23C554.86 1131.64 532.95 1101.82 521.81 1100.88 510.66 1099.94 491.72 1120.74 490.81 1129.26 489.9 1137.79 510.61 1163.34 518.81 1165.61 527.01 1167.89 550.08 1146.82 552.47 1139.23Z" fill="#CAD8D8"/><path d="M175.93 1146.89C249.63 1200.9 377.43 1197.25 417.81 1188.7 412.24 1266.75 365.18 1349.71 316.43 1347.85 248.72 1345.27 226.03 1203.1 226.03 1203.1 167.87 1176.63 175.93 1146.89 175.93 1146.89Z" fill="#840000"/><path d="M287.7 1204.46C290.83 1236.4 315.3 1273.15 336.67 1276.04 358.04 1278.93 380.02 1265.22 391.8 1247.71 403.58 1230.2 407.6 1202.63 407.6 1202.63 378.83 1206.91 319.95 1210.08 287.7 1204.46Z" fill="#470000"/><path d="M403.58 1230.2C283.41 1229.58 267.92 1291.53 282.17 1322.5 320.57 1365.25 376.94 1317.54 403.58 1230.2Z" fill="#EA535A"/><path d="M232.6 1184.98C230.12 1202.33 231.86 1223.38 278.45 1230.19 325.03 1237 329.09 1200.89 329.09 1200.89 280.49 1200.9 232.6 1184.98 232.6 1184.98Z" fill="#FFBBBB"/><path d="M1275.14 2257.07C1227.8 2229.7 1117.3 2429.59 1107.65 2461.58 1098.12 2493.39 1107.42 2621.24 1171.27 2650.23 1235.27 2679.33 1274.74 2621.76 1257.77 2590.94 1240.94 2560.13 1206.96 2488.65 1212.42 2462.36 1217.94 2436.33 1308.77 2276.42 1275.14 2257.07Z" fill="#D83116"/><path d="M1287.33 2220.08C1277.56 2164.52 1090.97 2425.8 1122.2 2451.1 1179.61 2497.59 1294.78 2262.49 1287.33 2220.08Z" fill="#F74D3C"/></g></svg>